<svg xmlns="http://www.w3.org/2000/svg" width="292" height="61" viewBox="0 0 292 61"><title>  Group</title><desc>  Created with Sketch.</desc><g fill="none"><g fill="#000203"><path d="M45.9 1.5L45.9 35.1C45.9 46.3 40.9 50.9 29.3 50.9 17.6 50.9 12.7 46.3 12.7 35.1L12.7 0 1.5 0C0.5 0 0 0.5 0 1.5L0 35.6C0 54.4 12 60.9 29.3 60.9 46.6 60.9 58.6 54.4 58.6 35.6L58.6 0 47.4 0C46.4 0 45.9 0.5 45.9 1.5"/><path d="M208.5 9.7C209.4 9.7 209.8 9.4 210.1 8.8L213.4 0.7C213.6 0.2 213.4 0 212.9 0L167.7 0C163.5 0 161.9 1.3 161.9 4.2L161.9 56.3C161.9 58.8 163.1 59.9 166.4 59.9L208.5 59.9C209.4 59.9 209.8 59.6 210.1 58.9L213.4 50.9C213.6 50.4 213.4 50.1 212.9 50.1L174.3 50.1 174.3 39.5C174.3 35.8 176.4 34.2 181.8 34.2L198.5 34.2C199.5 34.2 199.9 33.9 200.2 33.2L203.3 25.5C203.5 25 203.3 24.8 202.8 24.8L174.3 24.8 174.3 9.7 208.5 9.7"/><path d="M117.2 50.3L95.1 50.3 95.1 39.3C95.1 35.6 97.1 34 102.5 34L117.2 34C124.2 34 126.2 36.6 126.2 42.2 126.2 47.7 124.2 50.3 117.2 50.3ZM95.1 9.6L114.9 9.6C121.5 9.6 123.3 12.1 123.3 17.3 123.3 22.4 121.5 24.9 114.9 24.9L95.1 24.9 95.1 9.6ZM129 28.3C133.9 25.7 135.9 20.9 135.9 15.2 135.9 2 125.1 0 113.9 0L88.5 0C84.2 0 82.6 1.3 82.6 4.2L82.6 56.3C82.6 58.8 83.9 59.9 87.1 59.9L118.5 59.9C130.3 59.9 138.8 55.3 138.8 43.3 138.8 36.2 135.7 30.1 129 28.3L129 28.3Z"/><path d="M268.2 27.8L247.4 27.8 247.4 9.6 268.2 9.6C276 9.6 277.7 12.6 277.7 18.7 277.7 24.8 276 27.8 268.2 27.8ZM291.7 58.8L278.2 35.8C284.9 34.1 290.3 29.7 290.3 18.4 290.3 3.9 281.3 0 266.4 0L240.8 0C236.6 0 235 1.3 235 4.2L235 58.4C235 59.4 235.5 59.9 236.4 59.9L247.4 59.9 247.4 42.4C247.4 38.7 249.4 37.1 254.9 37.1L265.9 37.1 278.1 58.9C278.4 59.5 278.8 59.9 279.7 59.9L291.1 59.9C291.9 59.9 291.9 59.2 291.7 58.8L291.7 58.8Z"/></g></g></svg>